<?xml version="1.0" encoding="utf-8"?>
<!-- Generator: Adobe Illustrator 22.0.0, SVG Export Plug-In . SVG Version: 6.00 Build 0)  -->
<svg version="1.1" id="Layer_1" xmlns="http://www.w3.org/2000/svg" xmlns:xlink="http://www.w3.org/1999/xlink" x="0px" y="0px"
	 viewBox="0 0 141.7 104.9" style="enable-background:new 0 0 141.7 104.9;" xml:space="preserve">
<style type="text/css">
	.st0{fill:url(#SVGID_1_);}
</style>
<linearGradient id="SVGID_1_" gradientUnits="userSpaceOnUse" x1="4.9807" y1="10.5301" x2="114.1028" y2="96.0724">
	<stop  offset="0" style="stop-color:#D82027"/>
	<stop  offset="1" style="stop-color:#9F2145"/>
</linearGradient>
<path class="st0" d="M140.8,96.1c0,3-0.3,6-0.9,8.8h-24.9v-8.8c0-7.6-5.8-13.7-12.9-13.7H28.8v22.5H2.1v-50H102
	c7.1,0,12.9-6.1,12.9-13.7c0-7.6-5.8-13.7-12.9-13.7H2.1V0H102c4.5,0,8.9,0.8,12.9,2.3c11,4.1,19.7,13.4,23.6,25.1
	c1.4,4.3,2.2,8.9,2.2,13.7c0,4.8-0.8,9.4-2.2,13.7c-1.7,5.1-4.3,9.8-7.7,13.7c3.3,4,6,8.6,7.7,13.7C140,86.6,140.8,91.2,140.8,96.1z
	"/>
</svg>
