<?xml version="1.0" encoding="utf-8"?>
<!-- Generator: Adobe Illustrator 22.0.0, SVG Export Plug-In . SVG Version: 6.00 Build 0)  -->
<svg version="1.1" id="Layer_1" xmlns="http://www.w3.org/2000/svg" xmlns:xlink="http://www.w3.org/1999/xlink" x="0px" y="0px"
	 viewBox="0 0 327.9 104.6" style="enable-background:new 0 0 327.9 104.6;" xml:space="preserve">
<style type="text/css">
	.st0{fill:url(#SVGID_1_);}
	.st1{fill:#212529;}
</style>
<title>logo-black</title>
<g>
	<linearGradient id="SVGID_1_" gradientUnits="userSpaceOnUse" x1="6.246" y1="9.6117" x2="87.3994" y2="73.2289">
		<stop  offset="0" style="stop-color:#D81E1E"/>
		<stop  offset="1" style="stop-color:#9E2044"/>
	</linearGradient>
	<path class="st0" d="M107.2,73.2c0,2.3-0.2,4.4-0.7,6.6H88v-6.6c0-5.6-4.3-10.2-9.6-10.2H23.9v16.8H4.1V42.6h74.3
		c5.3,0,9.6-4.6,9.6-10.2c0-5.6-4.3-10.2-9.6-10.2H4.1V1.8h74.3c3.4,0,6.6,0.6,9.6,1.7c8.2,3.1,14.7,10,17.6,18.7
		c1.1,3.2,1.6,6.6,1.6,10.2c0,3.6-0.6,7-1.6,10.2c-1.3,3.8-3.2,7.3-5.7,10.2c2.5,2.9,4.4,6.4,5.7,10.2
		C106.7,66.2,107.2,69.6,107.2,73.2z"/>
	<g>
		<g>
			<path class="st1" d="M114.4,59.9c0-12.9,9.2-20.8,18.7-20.8c11.3,0,16.9,8.2,16.9,19.1c0,2.1-0.3,4.2-0.5,5.2h-23.7
				c1.1,5.8,5,8.4,10.3,8.4c3,0,5.7-0.9,8.6-2.6l3.9,7.1c-4.1,2.8-9.4,4.5-14.1,4.5C123.2,80.7,114.4,73.1,114.4,59.9z M140,55.6
				c0-4.4-1.9-7.5-6.6-7.5c-3.7,0-6.9,2.5-7.7,7.5H140z"/>
			<path class="st1" d="M155.8,59.9c0-13.2,9.7-20.8,20.7-20.8c4.9,0,8.6,1.7,11.6,4.3l-5.6,7.6c-1.9-1.6-3.5-2.3-5.4-2.3
				c-5.7,0-9.3,4.5-9.3,11.3c0,6.9,3.8,11.3,8.9,11.3c2.6,0,5.1-1.3,7.2-2.9l4.6,7.7c-3.9,3.4-8.8,4.7-13.1,4.7
				C164.4,80.7,155.8,73.1,155.8,59.9z"/>
			<path class="st1" d="M194.3,94.5l2.1-9c0.7,0.2,1.8,0.5,2.7,0.5c3.9,0,5.9-2.1,6.9-5.2l0.6-2.1l-15.3-38.7h11.8l5.7,17.1
				c1.1,3.6,2.1,7.4,3.1,11.2h0.3c0.9-3.8,1.8-7.5,2.8-11.2l4.8-17.1h11.3l-13.8,40.1c-3.8,9.9-8,15.1-17.3,15.1
				C197.5,95.3,196,95,194.3,94.5z"/>
			<path class="st1" d="M234.9,59.9c0-13.2,9.7-20.8,20.7-20.8c4.9,0,8.6,1.7,11.6,4.3l-5.6,7.6c-1.9-1.6-3.5-2.3-5.4-2.3
				c-5.7,0-9.3,4.5-9.3,11.3c0,6.9,3.8,11.3,8.9,11.3c2.6,0,5.1-1.3,7.2-2.9l4.6,7.7c-3.9,3.4-8.8,4.7-13.1,4.7
				C243.5,80.7,234.9,73.1,234.9,59.9z"/>
			<path class="st1" d="M274.6,67.4V23.7h11.8v44.2c0,2.5,1.2,3.3,2.1,3.3c0.5,0,0.8,0,1.4-0.2l1.4,8.7c-1.3,0.6-3.2,1-5.9,1
				C277.4,80.7,274.6,75.5,274.6,67.4z"/>
			<path class="st1" d="M297.5,40.1h9.6L308,47h0.3c2.9-5.3,7.2-7.9,11.3-7.9c2.3,0,3.6,0.3,4.7,0.8l-2,10.1
				c-1.4-0.3-2.6-0.6-4.3-0.6c-3,0-6.6,1.9-8.7,7.3v23h-11.8V40.1z"/>
		</g>
	</g>
</g>
</svg>
